<svg xmlns="http://www.w3.org/2000/svg" width="1640" height="228.05" viewBox="0 0 1640 228.05">
  <g id="pi-17" transform="translate(-336.994 -460.31)">
    <path id="Path_12" data-name="Path 12" d="M347.207,521.4a74.087,74.087,0,0,1,27.488-30.18,73.192,73.192,0,0,1,38.8-10.576,68.164,68.164,0,0,1,32.763,7.559,66.48,66.48,0,0,1,22.485,19.032V483.387h42.578V650.653H468.741v-24.47a62.537,62.537,0,0,1-22.485,19.467,68.79,68.79,0,0,1-33.116,7.695,71.234,71.234,0,0,1-38.5-10.876A76.129,76.129,0,0,1,347.153,611.8a98.425,98.425,0,0,1-10.141-45.405A96.9,96.9,0,0,1,347.207,521.4Zm115.5,19.168a42.551,42.551,0,0,0-16.313-16.884,43.5,43.5,0,0,0-22.05-5.9,42.8,42.8,0,0,0-21.751,5.737,43.5,43.5,0,0,0-16.15,16.748,52.531,52.531,0,0,0-6.172,26.129,54.215,54.215,0,0,0,6.172,26.428,44.7,44.7,0,0,0,16.313,17.347,41.382,41.382,0,0,0,21.588,6.035,43.693,43.693,0,0,0,22.05-5.872,42.819,42.819,0,0,0,16.313-16.912,60.877,60.877,0,0,0,0-52.855Z" transform="translate(0 34.917)" fill="#1A1A1A"/>
    <path id="Path_13" data-name="Path 13" d="M481.094,521.93a69.25,69.25,0,0,1,32.763-7.558,73.246,73.246,0,0,1,38.8,10.576,74.336,74.336,0,0,1,27.461,30.044,96.55,96.55,0,0,1,10.114,45.134,98.425,98.425,0,0,1-10.114,45.433,76.319,76.319,0,0,1-27.461,30.669,71.778,71.778,0,0,1-38.8,10.876,69.087,69.087,0,0,1-32.763-7.4,63.732,63.732,0,0,1-22.513-19.032v23.845H416.33V461h42.252v79.419C464.019,532.289,471.523,526.96,481.094,521.93ZM540.91,574A42.985,42.985,0,0,0,524.6,557.249a43.5,43.5,0,0,0-21.887-5.737,42.007,42.007,0,0,0-21.588,5.9,43.666,43.666,0,0,0-16.313,17.047,58.728,58.728,0,0,0,0,52.529,43.91,43.91,0,0,0,16.313,17.075,42.659,42.659,0,0,0,43.5-.163,44.863,44.863,0,0,0,16.313-17.211,54.188,54.188,0,0,0,6.172-26.564A52.828,52.828,0,0,0,540.883,574Z" transform="translate(136.371 1.186)" fill="#1A1A1A"/>
    <path id="Path_14" data-name="Path 14" d="M497.746,555.128a72.948,72.948,0,0,1,66.586-40.783,71.07,71.07,0,0,1,31.1,7.1,62.1,62.1,0,0,1,23.546,18.869V461h42.877V684.439H618.982V659.7a57.314,57.314,0,0,1-22.05,19.929,69.034,69.034,0,0,1-32.9,7.531,72.05,72.05,0,0,1-38.663-10.875,75.885,75.885,0,0,1-27.624-30.669,98.424,98.424,0,0,1-10.114-45.433A96.9,96.9,0,0,1,497.746,555.128Zm115.5,19.168a42.442,42.442,0,0,0-16.313-16.884,43.286,43.286,0,0,0-22.023-5.9,42.8,42.8,0,0,0-21.751,5.737A43.5,43.5,0,0,0,537.007,574a52.526,52.526,0,0,0-6.2,26.129,54.376,54.376,0,0,0,6.2,26.428A44.7,44.7,0,0,0,553.32,643.9a41.382,41.382,0,0,0,21.588,6.036,43.5,43.5,0,0,0,22.023-5.873,42.684,42.684,0,0,0,16.313-16.911A60.876,60.876,0,0,0,613.245,574.3Z" transform="translate(258.899 1.186)" fill="#1A1A1A"/>
    <path id="Path_15" data-name="Path 15" d="M573.046,521.4a74.2,74.2,0,0,1,27.461-30.18,73.246,73.246,0,0,1,38.771-10.577,68.163,68.163,0,0,1,32.627,7.559,66.556,66.556,0,0,1,22.512,19.032V483.385h42.741V650.652H694.581v-24.47a62.857,62.857,0,0,1-22.513,19.467,68.708,68.708,0,0,1-33.062,7.694,71.234,71.234,0,0,1-38.5-10.876A76.317,76.317,0,0,1,573.046,611.8a98.424,98.424,0,0,1-10.114-45.433A96.9,96.9,0,0,1,573.046,521.4Zm115.5,19.168a42.634,42.634,0,0,0-16.313-16.884,43.5,43.5,0,0,0-22.05-5.9,42.633,42.633,0,0,0-21.751,5.737,43.257,43.257,0,0,0-16.177,16.749,52.829,52.829,0,0,0-6.172,26.129,54.515,54.515,0,0,0,6.172,26.428,44.7,44.7,0,0,0,16.313,17.347,41.465,41.465,0,0,0,21.588,6.036,43.693,43.693,0,0,0,22.05-5.873,42.876,42.876,0,0,0,16.313-16.912,60.876,60.876,0,0,0,0-52.855Z" transform="translate(388.332 34.919)" fill="#1A1A1A"/>
    <path id="Path_16" data-name="Path 16" d="M684.489,461V684.439H642.21V461Z" transform="translate(524.635 1.186)" fill="#1A1A1A"/>
    <path id="Path_17" data-name="Path 17" d="M715.359,461V684.439H673.08V461Z" transform="translate(577.697 1.186)" fill="#1A1A1A"/>
    <path id="Path_18" data-name="Path 18" d="M710.02,521.4a74.2,74.2,0,0,1,27.461-30.18,73.247,73.247,0,0,1,38.8-10.577,68.163,68.163,0,0,1,32.763,7.559,66.556,66.556,0,0,1,22.512,19.032V483.387h42.469V650.653H831.554v-24.47a62.859,62.859,0,0,1-22.512,19.467,68.706,68.706,0,0,1-33.062,7.694,71.236,71.236,0,0,1-38.5-10.876A76.319,76.319,0,0,1,710.02,611.8a98.421,98.421,0,0,1-10.005-45.405A96.9,96.9,0,0,1,710.02,521.4Zm115.5,19.168a42.634,42.634,0,0,0-16.313-16.884,43.5,43.5,0,0,0-22.05-5.9,42.442,42.442,0,0,0-37.874,22.485,52.531,52.531,0,0,0-6.2,26.129,54.377,54.377,0,0,0,6.2,26.428,44.428,44.428,0,0,0,16.313,17.347,41.464,41.464,0,0,0,21.588,6.036,43.694,43.694,0,0,0,22.05-5.873,42.879,42.879,0,0,0,16.313-16.911,60.877,60.877,0,0,0,0-52.855Z" transform="translate(623.955 34.917)" fill="#1A1A1A"/>
    <path id="Path_19" data-name="Path 19" d="M907.283,522.964a57.314,57.314,0,0,1,23.083,24.47,83.828,83.828,0,0,1,8.32,38.8v98.125H896.407V591.915q0-19.957-9.978-30.642T859.24,550.56q-17.537,0-27.624,10.713T821.5,591.915v92.442H779.25V461h42.279v77a55.276,55.276,0,0,1,21.751-17.047,72.048,72.048,0,0,1,30.207-6.2,68.133,68.133,0,0,1,33.8,8.211Z" transform="translate(760.192 1.186)" fill="#1A1A1A"/>
    <path id="Path_20" data-name="Path 20" d="M944.635,620.562H868.18L1063.94,460.31Z" transform="translate(913.053 0)" fill="red"/>
    <path id="Path_21" data-name="Path 21" d="M969.117,655.962l-69.277,32.3L1009.52,460.31Z" transform="translate(967.473 0)" fill="red"/>
    <path id="Path_22" data-name="Path 22" d="M923.211,567.162,851.84,539.756l240.187-79.446Z" transform="translate(884.967 0)" fill="red"/>
  </g>
</svg>
