<svg id="computer-svgrepo-com" xmlns="http://www.w3.org/2000/svg" width="133.403" height="118.411" viewBox="0 0 133.403 118.411">
  <path id="Path_108" data-name="Path 108" d="M124.584,25.5H8.821A8.846,8.846,0,0,0,0,34.316v67.075l66.7,5.88,66.7-5.88V34.316A8.846,8.846,0,0,0,124.584,25.5Z" transform="translate(-0.001 -25.496)" fill="#f2f2f2"/>
  <path id="Path_109" data-name="Path 109" d="M292.728,109.05l-12.037,8.82h-8.82V65.5h41.711V117.87h-8.82Z" transform="translate(-191.939 -53.736)" fill="#fff"/>
  <path id="Path_110" data-name="Path 110" d="M301.871,180.916v14.653h12.035l2.94-20.017Z" transform="translate(-213.119 -131.435)" fill="red"/>
  <path id="Path_111" data-name="Path 111" d="M342.806,175.552v20.017h12.035V180.916Z" transform="translate(-242.019 -131.435)" fill="red"/>
  <path id="Path_112" data-name="Path 112" d="M335.78,136.426s-10.029,0-10.029,0S335.78,136.426,335.78,136.426Z" transform="translate(-229.978 -103.812)" fill="#ffcc75"/>
  <path id="Path_113" data-name="Path 113" d="M342.811,95.5l5.013,12.034S342.808,95.5,342.811,95.5Z" transform="translate(-242.022 -74.916)" fill="#98d9d5"/>
  <rect id="Rectangle_12" data-name="Rectangle 12" width="26.461" height="21.14" transform="translate(53.472 95.066)" fill="#1a1a1a"/>
  <path id="Path_114" data-name="Path 114" d="M186.558,417.656H136.577a2.205,2.205,0,1,1,0-4.41h49.981a2.205,2.205,0,1,1,0,4.41Z" transform="translate(-94.866 -299.245)" fill="#1a1a1a"/>
  <path id="Path_115" data-name="Path 115" d="M0,283.631v10.352a8.846,8.846,0,0,0,8.82,8.82H124.583a8.846,8.846,0,0,0,8.82-8.82V283.631Z" transform="translate(0 -207.738)" fill="#717171"/>
  <path id="Path_116" data-name="Path 116" d="M91.3,62.406h-56.6a2.205,2.205,0,0,1,0-4.41H91.3a2.205,2.205,0,1,1,0,4.41Z" transform="translate(-22.945 -48.441)" fill="red"/>
  <path id="Path_117" data-name="Path 117" d="M91.3,98.033h-56.6a2.205,2.205,0,1,1,0-4.41H91.3a2.205,2.205,0,1,1,0,4.41Z" transform="translate(-22.945 -73.593)" fill="red"/>
  <path id="Path_118" data-name="Path 118" d="M63,133.661h-28.3a2.205,2.205,0,1,1,0-4.41H63a2.205,2.205,0,0,1,0,4.41Z" transform="translate(-22.945 -98.746)" fill="red"/>
  <path id="Path_119" data-name="Path 119" d="M91.3,169.289h-56.6a2.205,2.205,0,1,1,0-4.41H91.3a2.205,2.205,0,1,1,0,4.41Z" transform="translate(-22.945 -123.899)" fill="red"/>
  <path id="Path_120" data-name="Path 120" d="M91.3,204.917h-56.6a2.205,2.205,0,0,1,0-4.41H91.3a2.205,2.205,0,1,1,0,4.41Z" transform="translate(-22.945 -149.053)" fill="red"/>
  <path id="Path_121" data-name="Path 121" d="M63,240.545h-28.3a2.205,2.205,0,0,1,0-4.41H63a2.205,2.205,0,0,1,0,4.41Z" transform="translate(-22.945 -174.206)" fill="red"/>
  <path id="Path_122" data-name="Path 122" d="M330.765,95.5l-5.015,12.035,5.015,2.94,5.015-2.94Z" transform="translate(-229.977 -74.916)" fill="red"/>
  <path id="Path_123" data-name="Path 123" d="M301.871,153.3a9.358,9.358,0,0,0,4.68,1.232,8.942,8.942,0,0,0,7.355-3.656,8.941,8.941,0,0,0,7.355,3.656,9.359,9.359,0,0,0,4.68-1.232v-.016l-7.021-16.849H308.892l-7.021,16.849Z" transform="translate(-213.119 -103.815)" fill="#ffcc75"/>
</svg>
