<svg id="pi-22" xmlns="http://www.w3.org/2000/svg" width="895.368" height="355.551" viewBox="0 0 895.368 355.551">
  <g id="Group_6" data-name="Group 6" transform="translate(0)">
    <g id="Group_5" data-name="Group 5">
      <path id="Path_78" data-name="Path 78" d="M309.11,475.885V382.85h14.811v93.035Z" transform="translate(-309.11 -380.221)" fill="#f2f2f2"/>
      <path id="Path_79" data-name="Path 79" d="M357.74,475.885V382.85h33.021q15.063,0,25.091,6.224a39.907,39.907,0,0,1,15.133,16.769,52.844,52.844,0,0,1,5.1,23.384q0,14.161-5.566,24.629a39.553,39.553,0,0,1-15.79,16.252q-10.217,5.769-23.972,5.762H357.74Zm63.412-46.657a39.353,39.353,0,0,0-3.608-17.3,28.263,28.263,0,0,0-10.35-11.79q-6.755-4.322-16.448-4.322h-18.21v67.091h18.21q9.818,0,16.573-4.448A28.449,28.449,0,0,0,417.6,446.4,39.959,39.959,0,0,0,421.152,429.227Z" transform="translate(-289.726 -380.221)" fill="#f2f2f2"/>
      <path id="Path_80" data-name="Path 80" d="M455.83,470.353a36.17,36.17,0,0,1-14.545-2.8,34.306,34.306,0,0,1-11.133-7.678,34.713,34.713,0,0,1-7.273-11.189,35.111,35.111,0,0,1-2.559-13.329,35.892,35.892,0,0,1,4.462-17.748A33.692,33.692,0,0,1,437.3,404.787a35.5,35.5,0,0,1,18.545-4.8q10.867,0,18.671,4.867a34.288,34.288,0,0,1,12.126,12.783,34.773,34.773,0,0,1,4.322,16.993c0,1.035-.042,2.014-.126,2.923s-.168,1.622-.266,2.14H435.537a23.889,23.889,0,0,0,3.538,10.545,20.42,20.42,0,0,0,7.469,6.979,19.88,19.88,0,0,0,9.692,2.517,22.491,22.491,0,0,0,11.077-2.881,14.846,14.846,0,0,0,7.007-7.594l12.321,3.539a26.152,26.152,0,0,1-6.811,8.979,34.832,34.832,0,0,1-10.671,6.294A37.894,37.894,0,0,1,455.83,470.353ZM435.257,430.27h41.412a22.366,22.366,0,0,0-3.343-10.28,20.168,20.168,0,0,0-7.4-6.867,20.75,20.75,0,0,0-27.384,6.867A20.764,20.764,0,0,0,435.257,430.27Z" transform="translate(-264.782 -373.389)" fill="#f2f2f2"/>
      <path id="Path_81" data-name="Path 81" d="M479.34,380.98h14.42v76.238c0,3.413.531,5.636,1.567,6.643a5.457,5.457,0,0,0,3.93,1.51,18.782,18.782,0,0,0,4.909-.657c1.622-.434,2.951-.825,4-1.175l2.1,11.273a42.254,42.254,0,0,1-7.469,2.224,37.4,37.4,0,0,1-7.734.923c-4.979,0-8.839-1.371-11.594-4.14s-4.126-6.587-4.126-11.5Z" transform="translate(-241.257 -380.966)" fill="#f2f2f2"/>
      <path id="Path_82" data-name="Path 82" d="M507.44,396.83V380.97h14.419v15.86Zm0,79.8V408.1h14.419v68.531Z" transform="translate(-230.056 -380.97)" fill="#f2f2f2"/>
      <path id="Path_83" data-name="Path 83" d="M551.094,468.75l-25.944-68h14.937l19.4,54.741,19.65-54.741H592.9l-25.944,68Z" transform="translate(-222.997 -373.086)" fill="#f2f2f2"/>
      <path id="Path_84" data-name="Path 84" d="M613.4,470.353a36.171,36.171,0,0,1-14.545-2.8,34.3,34.3,0,0,1-11.133-7.678,34.706,34.706,0,0,1-7.273-11.189,35.109,35.109,0,0,1-2.559-13.329,35.89,35.89,0,0,1,4.461-17.748,33.69,33.69,0,0,1,12.517-12.825,35.505,35.505,0,0,1,18.546-4.8q10.867,0,18.671,4.867a34.284,34.284,0,0,1,12.126,12.783,34.771,34.771,0,0,1,4.322,16.993c0,1.035-.042,2.014-.126,2.923s-.168,1.622-.266,2.14H593.107a23.885,23.885,0,0,0,3.538,10.545,20.419,20.419,0,0,0,7.469,6.979,19.88,19.88,0,0,0,9.692,2.517,22.491,22.491,0,0,0,11.077-2.881,14.845,14.845,0,0,0,7.007-7.594l12.322,3.539a26.154,26.154,0,0,1-6.811,8.979,34.833,34.833,0,0,1-10.671,6.294A37.782,37.782,0,0,1,613.4,470.353ZM592.827,430.27h41.412a22.364,22.364,0,0,0-3.343-10.28,20.168,20.168,0,0,0-7.4-6.867,20.75,20.75,0,0,0-27.385,6.867A20.763,20.763,0,0,0,592.827,430.27Z" transform="translate(-201.975 -373.389)" fill="#f2f2f2"/>
      <path id="Path_85" data-name="Path 85" d="M675.215,413a30.342,30.342,0,0,0-14.741,3.8,20.791,20.791,0,0,0-9.245,10.35v41.93H636.81v-68h13.231V415.76a32.579,32.579,0,0,1,9.441-11.2,22.484,22.484,0,0,1,12.056-4.657h2.294a6,6,0,0,1,1.37.126V413Z" transform="translate(-178.49 -373.425)" fill="#f2f2f2"/>
      <path id="Path_86" data-name="Path 86" d="M691.44,449.189a18.139,18.139,0,0,1,3.734-11.357,23.869,23.869,0,0,1,10.35-7.525,40.241,40.241,0,0,1,15.133-2.657,62.1,62.1,0,0,1,9.3.713,48.825,48.825,0,0,1,8.518,2.028V426.1c0-4.727-1.441-8.434-4.322-11.091s-7.035-4-12.448-4a29.984,29.984,0,0,0-10.881,1.972,53.812,53.812,0,0,0-10.881,5.9l-4.713-9.832a54.691,54.691,0,0,1,13.5-6.755A46.226,46.226,0,0,1,723.272,400q13.762,0,21.623,7.189t7.86,20.406v25.259a5.237,5.237,0,0,0,.923,3.5,4.248,4.248,0,0,0,3.021,1.161v11.524a34.221,34.221,0,0,1-3.468.531c-1.007.084-1.86.168-2.56.266-3.147-.084-5.5-.867-7.077-2.364a8.628,8.628,0,0,1-2.755-5.245l-.391-3.93a28.364,28.364,0,0,1-11.329,8.909,34.124,34.124,0,0,1-14.084,3.147,26.022,26.022,0,0,1-12.182-2.8,21.241,21.241,0,0,1-8.392-7.594A19.756,19.756,0,0,1,691.44,449.189Zm43.636,4.238a29.28,29.28,0,0,0,2.419-3.482,6.192,6.192,0,0,0,.979-3.091v-7.608a40.66,40.66,0,0,0-7.734-2.126,45.5,45.5,0,0,0-7.86-.713q-7.993,0-12.909,3.091a9.574,9.574,0,0,0-4.909,8.5,10.492,10.492,0,0,0,1.636,5.608,12.761,12.761,0,0,0,4.713,4.378,15.1,15.1,0,0,0,7.539,1.734,23.139,23.139,0,0,0,9.175-1.86A22.282,22.282,0,0,0,735.076,453.426Z" transform="translate(-156.714 -373.385)" fill="#f2f2f2"/>
      <path id="Path_87" data-name="Path 87" d="M482.114,593.085H453.9V532.106q0-13.07-4.517-19.077a14.792,14.792,0,0,0-12.531-6.014q-8.413,0-15.79,6.322a34.825,34.825,0,0,0-10.517,16.28v63.468H382.128V532.106q0-13.07-4.42-19.077t-12.419-6.014q-8.2,0-15.79,6.168a33.119,33.119,0,0,0-10.727,16.238V593.1H310.8V483.868h25.469v20.378a43.38,43.38,0,0,1,16.937-16.336,49.96,49.96,0,0,1,24.1-5.72q13.678,0,21.357,6.657a29.49,29.49,0,0,1,9.79,16.434,45.582,45.582,0,0,1,40.825-23.091q10.112,0,16.517,3.636a26.542,26.542,0,0,1,10,9.776,41.745,41.745,0,0,1,4.951,13.832,88.149,88.149,0,0,1,1.371,15.4v68.252Z" transform="translate(-308.436 -340.624)" fill="red"/>
      <path id="Path_88" data-name="Path 88" d="M503.968,595.187a61.925,61.925,0,0,1-24-4.476,54.059,54.059,0,0,1-29.888-30.07,57.03,57.03,0,0,1-4-21.441,58.659,58.659,0,0,1,7.049-28.405,53.972,53.972,0,0,1,19.986-20.811q12.944-7.8,31.049-7.8,17.895,0,30.727,7.818a54.157,54.157,0,0,1,19.776,20.531,56.914,56.914,0,0,1,6.951,27.72c0,1.8-.07,3.511-.21,5.105s-.28,2.951-.42,4.07H475.954a29.556,29.556,0,0,0,4.741,14.713,27.953,27.953,0,0,0,10.517,9.356,29.311,29.311,0,0,0,13.58,3.287,33,33,0,0,0,16.1-4.1,21.647,21.647,0,0,0,10.21-11.049l24,6.741a43.959,43.959,0,0,1-11.161,14.937,53.881,53.881,0,0,1-17.469,10.21A65.147,65.147,0,0,1,503.968,595.187Zm-28.839-65.454h57.664a32.179,32.179,0,0,0-4.727-14.294,27.274,27.274,0,0,0-10.21-9.455,29.268,29.268,0,0,0-14.1-3.4,28.258,28.258,0,0,0-13.79,3.4,27.492,27.492,0,0,0-10.1,9.455A32.016,32.016,0,0,0,475.129,529.732Z" transform="translate(-254.514 -340.628)" fill="red"/>
      <path id="Path_89" data-name="Path 89" d="M584.059,595.183a79.963,79.963,0,0,1-27.049-4.629,58.651,58.651,0,0,1-22-13.678l10.308-18.308a73.067,73.067,0,0,0,19.161,11.79A49.545,49.545,0,0,0,583,574.148q8.2,0,13.161-2.839a9.221,9.221,0,0,0,4.951-8.517,7.6,7.6,0,0,0-2.742-6.336,24.11,24.11,0,0,0-7.888-3.748q-5.161-1.553-12.518-3.636a151.953,151.953,0,0,1-20.308-7.581q-8.1-3.839-12.308-9.552t-4.21-14.643a31.054,31.054,0,0,1,5.581-18.587A36.554,36.554,0,0,1,562.3,486.554q9.986-4.364,23.468-4.364a67.251,67.251,0,0,1,22.308,3.678,53.194,53.194,0,0,1,19.147,11.888l-11.581,18.1a61.729,61.729,0,0,0-15.79-9.79,40.962,40.962,0,0,0-15.371-3.049,32.342,32.342,0,0,0-8.308,1.035,13.705,13.705,0,0,0-6.308,3.427,8.991,8.991,0,0,0-2.419,6.727,8.3,8.3,0,0,0,2.21,6.014,17.746,17.746,0,0,0,6.741,3.93q4.531,1.657,11.049,3.734a189.722,189.722,0,0,1,22.307,7.566q9.042,3.839,13.79,9.637t4.727,15.748q0,16.154-12,25.272Q604.268,595.169,584.059,595.183Z" transform="translate(-219.067 -340.624)" fill="red"/>
      <path id="Path_90" data-name="Path 90" d="M658.395,595.183a79.963,79.963,0,0,1-27.049-4.629,58.487,58.487,0,0,1-21.986-13.678l10.308-18.308a73.231,73.231,0,0,0,19.147,11.79,49.544,49.544,0,0,0,18.517,3.79c5.469,0,9.86-.951,13.147-2.839a9.221,9.221,0,0,0,4.951-8.517,7.6,7.6,0,0,0-2.741-6.336,23.971,23.971,0,0,0-7.888-3.748q-5.161-1.553-12.517-3.636a151.958,151.958,0,0,1-20.307-7.581q-8.1-3.839-12.308-9.552t-4.209-14.643a31.053,31.053,0,0,1,5.58-18.587,36.553,36.553,0,0,1,15.58-12.154q9.986-4.364,23.468-4.364a67.25,67.25,0,0,1,22.308,3.678,53.193,53.193,0,0,1,19.147,11.888l-11.581,18.1a61.729,61.729,0,0,0-15.79-9.79,40.907,40.907,0,0,0-15.37-3.049,32.343,32.343,0,0,0-8.308,1.035,13.7,13.7,0,0,0-6.308,3.427,9.045,9.045,0,0,0-2.42,6.727,8.3,8.3,0,0,0,2.21,6.014,17.743,17.743,0,0,0,6.741,3.93q4.531,1.657,11.049,3.734a189.711,189.711,0,0,1,22.308,7.566q9.042,3.839,13.79,9.637t4.741,15.748q0,16.154-12,25.272Q678.6,595.169,658.395,595.183Z" transform="translate(-189.431 -340.624)" fill="red"/>
      <path id="Path_91" data-name="Path 91" d="M684.3,560.879a29.7,29.7,0,0,1,6-18.5A39.5,39.5,0,0,1,706.929,530q10.636-4.469,24.727-4.476a97.075,97.075,0,0,1,14.1,1.049,47.935,47.935,0,0,1,12.42,3.37v-6.07q0-10.133-6.1-15.706t-18.308-5.58a48.043,48.043,0,0,0-17.469,3.161,93.746,93.746,0,0,0-17.259,9.049L690.2,496.488a80.585,80.585,0,0,1,22.21-10.839,82.5,82.5,0,0,1,24.1-3.469q23.58,0,36.727,11.51t13.161,33.3v34.657c0,2.909.531,4.979,1.58,6.224s2.769,2,5.161,2.28v22.937q-3.8.63-6.839,1.049a22.476,22.476,0,0,1-5.161.21q-8.413,0-12.741-3.678a14.593,14.593,0,0,1-5.161-9.161l-.629-5.678a49.9,49.9,0,0,1-18.1,14.308,50.86,50.86,0,0,1-21.888,5.049,41.745,41.745,0,0,1-19.678-4.574,35.026,35.026,0,0,1-13.678-12.377A31.574,31.574,0,0,1,684.3,560.879Zm68.615,5.273a17.8,17.8,0,0,0,3.79-4.713,9.845,9.845,0,0,0,1.469-4.518V546.04a57.135,57.135,0,0,0-10.951-3.175,59.236,59.236,0,0,0-11.161-1.133q-10.951,0-18,4.615t-7.049,12.21a14.991,14.991,0,0,0,2.308,7.9,16.5,16.5,0,0,0,6.629,6.056,22.676,22.676,0,0,0,10.629,2.252A33.038,33.038,0,0,0,743,572.305,30.064,30.064,0,0,0,752.915,566.152Z" transform="translate(-159.56 -340.628)" fill="red"/>
      <path id="Path_92" data-name="Path 92" d="M821.034,595.19a45.531,45.531,0,0,1-20.1-4.433,47.373,47.373,0,0,1-15.678-12.126,56.19,56.19,0,0,1-10.1-17.818,63.931,63.931,0,0,1-3.581-21.51,66.309,66.309,0,0,1,3.678-22.35,56.6,56.6,0,0,1,10.517-18.238,47.462,47.462,0,0,1,16.21-12.224,48.884,48.884,0,0,1,20.727-4.322q12.839,0,22.518,5.678a47.847,47.847,0,0,1,16,15.371V483.862h24.63V588.184q0,16.3-8,27.916a51.3,51.3,0,0,1-21.678,17.776q-13.679,6.168-31.566,6.168t-30.308-6a61.4,61.4,0,0,1-21.259-16.937l15.37-14.937a43.811,43.811,0,0,0,15.888,12.21,47.777,47.777,0,0,0,20.308,4.419,43.416,43.416,0,0,0,16.419-3.063,26.046,26.046,0,0,0,12-9.511q4.427-6.441,4.42-16.881V575.456A35.861,35.861,0,0,1,842.2,590.086,46.158,46.158,0,0,1,821.034,595.19Zm9.468-22.517a26.08,26.08,0,0,0,8.951-1.483,31.894,31.894,0,0,0,7.678-4.014,29.907,29.907,0,0,0,6.308-6.014,24.184,24.184,0,0,0,4-7.286V527.694a32.114,32.114,0,0,0-6.839-11.4,33.5,33.5,0,0,0-10.1-7.5,26.946,26.946,0,0,0-11.678-2.643,25.419,25.419,0,0,0-11.678,2.741,27.355,27.355,0,0,0-9.16,7.594A37.344,37.344,0,0,0,802.1,527.47a38.859,38.859,0,0,0-2.112,12.672,33.236,33.236,0,0,0,2.42,12.671,35.169,35.169,0,0,0,6.531,10.448,27.684,27.684,0,0,0,9.79,6.965A29.326,29.326,0,0,0,830.5,572.673Z" transform="translate(-124.771 -340.632)" fill="red"/>
      <path id="Path_93" data-name="Path 93" d="M924.558,595.187a61.924,61.924,0,0,1-24-4.476,54.059,54.059,0,0,1-29.888-30.07,57.028,57.028,0,0,1-4-21.441,58.659,58.659,0,0,1,7.049-28.405,54.005,54.005,0,0,1,20-20.811q12.944-7.8,31.049-7.8,17.9,0,30.727,7.818a54.3,54.3,0,0,1,19.79,20.531,56.91,56.91,0,0,1,6.951,27.72c0,1.8-.07,3.511-.21,5.105s-.28,2.951-.419,4.07H896.586a29.687,29.687,0,0,0,4.727,14.713,27.886,27.886,0,0,0,10.531,9.356,29.311,29.311,0,0,0,13.58,3.287,33,33,0,0,0,16.1-4.1,21.643,21.643,0,0,0,10.21-11.049l24,6.741a43.954,43.954,0,0,1-11.161,14.937,53.875,53.875,0,0,1-17.469,10.21A66.12,66.12,0,0,1,924.558,595.187Zm-28.825-65.454H953.4a32.017,32.017,0,0,0-4.742-14.294,27.269,27.269,0,0,0-10.209-9.455,29.268,29.268,0,0,0-14.1-3.4,28.26,28.26,0,0,0-13.79,3.4,27.491,27.491,0,0,0-10.1,9.455A32.173,32.173,0,0,0,895.733,529.732Z" transform="translate(-86.868 -340.628)" fill="red"/>
    </g>
  </g>
  <g id="Group_8" data-name="Group 8" transform="translate(5.301 284.055)">
    <g id="Group_7" data-name="Group 7">
      <path id="Path_94" data-name="Path 94" d="M321.375,600.748v37.664H312.9V585.14h6.909l30.154,38.489V585.21h8.406v53.2h-7.287Z" transform="translate(-312.9 -583.643)" fill="#fff"/>
      <path id="Path_95" data-name="Path 95" d="M371.652,635.249a20.8,20.8,0,0,1-8.336-1.594,19.012,19.012,0,0,1-6.336-4.419A20.058,20.058,0,0,1,352.9,622.8a20.507,20.507,0,0,1-1.427-7.622,20.865,20.865,0,0,1,1.427-7.762,20.053,20.053,0,0,1,4.084-6.434,18.843,18.843,0,0,1,6.378-4.42,20.836,20.836,0,0,1,8.294-1.594,20.5,20.5,0,0,1,8.294,1.594,19.444,19.444,0,0,1,6.336,4.42,19.7,19.7,0,0,1,4.126,6.434,20.919,20.919,0,0,1,1.427,7.762,20.56,20.56,0,0,1-1.427,7.622,20.3,20.3,0,0,1-4.084,6.434,18.844,18.844,0,0,1-6.378,4.419A20.784,20.784,0,0,1,371.652,635.249ZM359.945,615.1a14.093,14.093,0,0,0,1.581,6.727,12.314,12.314,0,0,0,4.2,4.657,10.552,10.552,0,0,0,5.846,1.706,10.794,10.794,0,0,0,6-1.706,12.222,12.222,0,0,0,4.2-4.727,14.9,14.9,0,0,0,0-13.357,12.114,12.114,0,0,0-4.238-4.7,10.722,10.722,0,0,0-5.888-1.706,10.315,10.315,0,0,0-5.93,1.776,12.963,12.963,0,0,0-4.2,4.727A13.9,13.9,0,0,0,359.945,615.1Z" transform="translate(-297.526 -579.725)" fill="#fff"/>
      <path id="Path_96" data-name="Path 96" d="M408.339,636.136c-.643.294-1.524.657-2.629,1.091a28.718,28.718,0,0,1-3.594,1.091,18.385,18.385,0,0,1-4.056.448,11.738,11.738,0,0,1-4.727-.937,7.8,7.8,0,0,1-3.482-2.881,8.739,8.739,0,0,1-1.315-5.007v-24.5H383.29v-6.378h5.245V586.15h8.252v12.909h8.559v6.378h-8.559v21.776a4.033,4.033,0,0,0,1.315,2.979,4.359,4.359,0,0,0,2.9.965,8.882,8.882,0,0,0,3.343-.644c1.077-.42,1.818-.742,2.21-.937Z" transform="translate(-284.843 -583.241)" fill="#fff"/>
      <path id="Path_97" data-name="Path 97" d="M418.274,653.091a16.989,16.989,0,0,1-5.1-.783,11.035,11.035,0,0,1-4.35-2.587l3.678-5.552a5.423,5.423,0,0,0,2.21,1.315,8.445,8.445,0,0,0,2.587.405,5.438,5.438,0,0,0,2.769-.741,5.709,5.709,0,0,0,2.028-2.014,5.567,5.567,0,0,0,.755-2.909V599.818H431.1v39.846a13.4,13.4,0,0,1-1.8,6.937,13.252,13.252,0,0,1-4.657,4.769A12.026,12.026,0,0,1,418.274,653.091Zm4.573-59.734V584.28H431.1v9.077Z" transform="translate(-274.667 -583.986)" fill="#fff"/>
      <path id="Path_98" data-name="Path 98" d="M431.56,619.222V595.39h8.252v22.154q0,5.2,1.916,7.846a6.459,6.459,0,0,0,5.594,2.643,11.3,11.3,0,0,0,4.546-.965,12.915,12.915,0,0,0,4.056-2.853,14.535,14.535,0,0,0,2.965-4.545V595.39h8.252v29.664a2.968,2.968,0,0,0,.531,1.972,2.291,2.291,0,0,0,1.72.7v6.6a16.924,16.924,0,0,1-2.14.266c-.573.028-1.063.056-1.455.112a6.359,6.359,0,0,1-3.832-1.273,4.436,4.436,0,0,1-1.72-3.133l-.154-3.79a17.58,17.58,0,0,1-6.783,6.336,19.646,19.646,0,0,1-9.259,2.238q-6.147,0-9.3-4.028Q431.56,627.026,431.56,619.222Z" transform="translate(-265.602 -579.558)" fill="#fff"/>
      <path id="Path_99" data-name="Path 99" d="M479.315,635.265a26.558,26.558,0,0,1-9.385-1.65,20.413,20.413,0,0,1-7.581-4.881l2.993-5.482a25.654,25.654,0,0,0,6.867,4.308,17.991,17.991,0,0,0,6.783,1.385,10.959,10.959,0,0,0,5.664-1.287,4.141,4.141,0,0,0,2.14-3.79,3.273,3.273,0,0,0-1.161-2.755,10.849,10.849,0,0,0-3.3-1.567c-1.427-.447-3.119-.937-5.063-1.483a50.56,50.56,0,0,1-7.021-2.643,10.829,10.829,0,0,1-4.308-3.385,8.662,8.662,0,0,1-1.426-5.133,10.565,10.565,0,0,1,1.944-6.391,12.42,12.42,0,0,1,5.441-4.126,20.878,20.878,0,0,1,8.07-1.455,22.987,22.987,0,0,1,7.916,1.315,17.522,17.522,0,0,1,6.42,4.084l-3.524,5.4a18.159,18.159,0,0,0-5.329-3.454,15.535,15.535,0,0,0-5.93-1.119,14.779,14.779,0,0,0-3.413.406,5.988,5.988,0,0,0-2.811,1.482,3.936,3.936,0,0,0-1.119,3.007,3.411,3.411,0,0,0,.937,2.559,7.742,7.742,0,0,0,2.741,1.595c1.2.448,2.671.937,4.42,1.483a66.837,66.837,0,0,1,7.8,2.6,13.121,13.121,0,0,1,4.993,3.371,8.294,8.294,0,0,1,1.762,5.608,10.364,10.364,0,0,1-4.238,8.755C487.776,634.2,484.014,635.265,479.315,635.265Z" transform="translate(-253.33 -579.741)" fill="#fff"/>
      <path id="Path_100" data-name="Path 100" d="M513.6,636.136c-.644.294-1.525.657-2.63,1.091a28.959,28.959,0,0,1-3.608,1.091,18.385,18.385,0,0,1-4.056.448,11.737,11.737,0,0,1-4.727-.937,7.915,7.915,0,0,1-3.5-2.881,8.738,8.738,0,0,1-1.315-5.007v-24.5H488.51v-6.378h5.259V586.15h8.252v12.909h8.559v6.378H502.02v21.776a4.033,4.033,0,0,0,1.315,2.979,4.347,4.347,0,0,0,2.881.965,8.882,8.882,0,0,0,3.343-.644c1.077-.42,1.8-.742,2.21-.937Z" transform="translate(-242.902 -583.241)" fill="#fff"/>
      <path id="Path_101" data-name="Path 101" d="M521.74,623.132a10.386,10.386,0,0,1,2.14-6.5,13.6,13.6,0,0,1,5.93-4.308,23,23,0,0,1,8.671-1.524,36.556,36.556,0,0,1,5.329.405,28.083,28.083,0,0,1,4.881,1.161V609.9a8.208,8.208,0,0,0-2.476-6.349q-2.475-2.287-7.133-2.294a17.365,17.365,0,0,0-6.224,1.119,31.384,31.384,0,0,0-6.224,3.371l-2.7-5.622a30.525,30.525,0,0,1,7.734-3.86,26.634,26.634,0,0,1,8.322-1.315q7.888,0,12.378,4.112c3.007,2.741,4.5,6.643,4.5,11.678V625.2a2.93,2.93,0,0,0,.531,2,2.448,2.448,0,0,0,1.72.671v6.6a15.942,15.942,0,0,1-1.986.294c-.574.056-1.063.1-1.455.154a6,6,0,0,1-4.056-1.357,4.96,4.96,0,0,1-1.581-3.007l-.224-2.252a16.359,16.359,0,0,1-6.489,5.1,19.526,19.526,0,0,1-8.07,1.8,14.96,14.96,0,0,1-6.979-1.594,12.06,12.06,0,0,1-4.8-4.35A11.014,11.014,0,0,1,521.74,623.132Zm24.993,2.434a18.512,18.512,0,0,0,1.385-1.986,3.534,3.534,0,0,0,.559-1.776v-4.35a22.888,22.888,0,0,0-4.42-1.217,26.659,26.659,0,0,0-4.5-.406,13.7,13.7,0,0,0-7.4,1.776,5.472,5.472,0,0,0-2.811,4.867,5.925,5.925,0,0,0,.937,3.2,7.314,7.314,0,0,0,2.7,2.5,8.718,8.718,0,0,0,4.308.993,13.072,13.072,0,0,0,5.245-1.063A13.212,13.212,0,0,0,546.733,625.565Z" transform="translate(-229.657 -579.733)" fill="#fff"/>
      <path id="Path_102" data-name="Path 102" d="M565.52,619.441a22.108,22.108,0,0,1,2.294-10.14,18.738,18.738,0,0,1,6.266-7.287,15.9,15.9,0,0,1,9.147-2.713,14.961,14.961,0,0,1,8.224,2.322,16.749,16.749,0,0,1,5.594,5.706V584.07H605.3v45.468a3.009,3.009,0,0,0,.532,1.986,2.348,2.348,0,0,0,1.72.713v6.6a31.916,31.916,0,0,1-3.608.448,5.693,5.693,0,0,1-3.9-1.385,4.746,4.746,0,0,1-1.72-3.259l-.07-2.853a16.751,16.751,0,0,1-14.028,7.79,17.454,17.454,0,0,1-7.469-1.595,18.365,18.365,0,0,1-5.93-4.392,20.3,20.3,0,0,1-3.9-6.392A21.079,21.079,0,0,1,565.52,619.441Zm31.51,5.4V614.7a11.1,11.1,0,0,0-2.657-4.21,15.638,15.638,0,0,0-4.126-2.993,10.147,10.147,0,0,0-4.615-1.147,9.976,9.976,0,0,0-4.685,1.1,12.1,12.1,0,0,0-3.678,2.923,12.923,12.923,0,0,0-2.364,4.21,15.324,15.324,0,0,0-.825,4.993,13.689,13.689,0,0,0,.895,4.951,13.03,13.03,0,0,0,2.587,4.182,11.89,11.89,0,0,0,3.9,2.811,11.522,11.522,0,0,0,4.839.993,10.475,10.475,0,0,0,3.343-.559,12.384,12.384,0,0,0,3.189-1.594,11.929,11.929,0,0,0,2.629-2.476A8.672,8.672,0,0,0,597.03,624.839Z" transform="translate(-212.206 -584.07)" fill="#fff"/>
      <path id="Path_103" data-name="Path 103" d="M619.969,635.25a20.8,20.8,0,0,1-8.336-1.594,19.8,19.8,0,0,1-10.546-10.8,20.066,20.066,0,0,1-1.468-7.636,20.7,20.7,0,0,1,2.546-10.168,19.292,19.292,0,0,1,7.161-7.343,20.343,20.343,0,0,1,10.615-2.741,19.832,19.832,0,0,1,10.685,2.783,19.546,19.546,0,0,1,6.937,7.315,19.989,19.989,0,0,1,2.476,9.734c0,.6-.028,1.147-.07,1.678s-.1.923-.153,1.231H608.305a13.647,13.647,0,0,0,2.028,6.042,11.732,11.732,0,0,0,4.28,4,11.338,11.338,0,0,0,5.552,1.44,12.75,12.75,0,0,0,6.336-1.65,8.533,8.533,0,0,0,4.014-4.35l7.049,2.028a14.887,14.887,0,0,1-3.9,5.133,20.011,20.011,0,0,1-6.112,3.609A21.932,21.932,0,0,1,619.969,635.25Zm-11.776-22.965H631.9a12.715,12.715,0,0,0-1.916-5.888,11.555,11.555,0,0,0-4.238-3.93,11.761,11.761,0,0,0-5.706-1.441,11.527,11.527,0,0,0-5.734,1.441,11.742,11.742,0,0,0-6.112,9.818Z" transform="translate(-198.614 -579.725)" fill="#fff"/>
      <path id="Path_104" data-name="Path 104" d="M648.195,635.265a26.558,26.558,0,0,1-9.385-1.65,20.412,20.412,0,0,1-7.58-4.881l3.007-5.482a25.655,25.655,0,0,0,6.867,4.308,18.007,18.007,0,0,0,6.8,1.385,10.96,10.96,0,0,0,5.665-1.287,4.141,4.141,0,0,0,2.14-3.79,3.273,3.273,0,0,0-1.161-2.755,10.852,10.852,0,0,0-3.3-1.567c-1.427-.447-3.119-.937-5.063-1.483a50.55,50.55,0,0,1-7.021-2.643,10.733,10.733,0,0,1-4.308-3.385,8.663,8.663,0,0,1-1.426-5.133,10.565,10.565,0,0,1,1.944-6.391,12.419,12.419,0,0,1,5.44-4.126,20.878,20.878,0,0,1,8.07-1.455,23.042,23.042,0,0,1,7.916,1.315,17.521,17.521,0,0,1,6.42,4.084l-3.524,5.4a18.157,18.157,0,0,0-5.328-3.454,15.535,15.535,0,0,0-5.93-1.119,14.775,14.775,0,0,0-3.412.406,5.988,5.988,0,0,0-2.811,1.482,3.988,3.988,0,0,0-1.119,3.007,3.411,3.411,0,0,0,.937,2.559,7.745,7.745,0,0,0,2.741,1.595c1.2.448,2.671.937,4.434,1.483a66.838,66.838,0,0,1,7.8,2.6A13.121,13.121,0,0,1,662,617.657a8.293,8.293,0,0,1,1.762,5.608,10.364,10.364,0,0,1-4.238,8.755C656.656,634.2,652.894,635.265,648.195,635.265Z" transform="translate(-186.014 -579.741)" fill="#fff"/>
      <path id="Path_105" data-name="Path 105" d="M659.72,593.147V584.07h8.252v9.077Zm0,45.692V599.594h8.252v39.245Z" transform="translate(-174.658 -584.07)" fill="#fff"/>
      <path id="Path_106" data-name="Path 106" d="M688.886,635.254a16.277,16.277,0,0,1-7.273-1.608,17.382,17.382,0,0,1-5.664-4.392,19.933,19.933,0,0,1-3.636-6.378,22.463,22.463,0,0,1-1.273-7.58,23.091,23.091,0,0,1,1.315-7.874,20.067,20.067,0,0,1,3.748-6.489,17.512,17.512,0,0,1,5.734-4.392,16.882,16.882,0,0,1,7.357-1.58,15.583,15.583,0,0,1,8.294,2.182,18.279,18.279,0,0,1,5.888,5.776v-7.357h7.273v37.916a16.428,16.428,0,0,1-2.741,9.622,17.389,17.389,0,0,1-7.469,6.042,25.987,25.987,0,0,1-10.573,2.084,23.316,23.316,0,0,1-10.839-2.252,21.83,21.83,0,0,1-7.315-6.154l4.574-4.35a15.651,15.651,0,0,0,5.93,4.8,17.729,17.729,0,0,0,7.65,1.65,15.925,15.925,0,0,0,6.224-1.189,10.3,10.3,0,0,0,4.573-3.679,10.859,10.859,0,0,0,1.72-6.308v-5.93a14.924,14.924,0,0,1-5.776,5.44A15.923,15.923,0,0,1,688.886,635.254Zm2.7-6.685a9.948,9.948,0,0,0,3.608-.671,14.587,14.587,0,0,0,3.189-1.72A11.127,11.127,0,0,0,700.9,623.7a9.51,9.51,0,0,0,1.5-2.923V610.5a13.475,13.475,0,0,0-6.755-7.4,10.529,10.529,0,0,0-4.657-1.091,10.023,10.023,0,0,0-4.839,1.161,11.692,11.692,0,0,0-3.636,3.077,14.386,14.386,0,0,0-2.322,4.308,15.32,15.32,0,0,0-.825,4.951,13.366,13.366,0,0,0,.937,4.993,13.713,13.713,0,0,0,2.587,4.2,11.653,11.653,0,0,0,3.86,2.853A11.373,11.373,0,0,0,691.585,628.568Z" transform="translate(-170.146 -579.729)" fill="#fff"/>
      <path id="Path_107" data-name="Path 107" d="M741.629,634.5h-8.182V612.764q0-5.5-1.8-7.972a6.1,6.1,0,0,0-5.245-2.49,10.324,10.324,0,0,0-4.769,1.217,14.812,14.812,0,0,0-4.2,3.2,13.053,13.053,0,0,0-2.741,4.643v23.119H706.44V595.547h7.51v7.8a15.056,15.056,0,0,1,3.9-4.462,18.489,18.489,0,0,1,5.482-2.9,20.477,20.477,0,0,1,6.531-1.035,12.141,12.141,0,0,1,5.846,1.259,9.138,9.138,0,0,1,3.609,3.455,15.434,15.434,0,0,1,1.8,5.049,33.549,33.549,0,0,1,.531,6.056V634.5Z" transform="translate(-156.036 -579.729)" fill="#fff"/>
    </g>
  </g>
</svg>
